<?xml version="1.0" encoding="UTF-8" standalone="no"?>
<!DOCTYPE svg PUBLIC "-//W3C//DTD SVG 1.1//EN" "http://www.w3.org/Graphics/SVG/1.1/DTD/svg11.dtd">
<svg width="100%" height="100%" viewBox="0 0 1212 297" version="1.1" xmlns="http://www.w3.org/2000/svg" xmlns:xlink="http://www.w3.org/1999/xlink" xml:space="preserve" xmlns:serif="http://www.serif.com/" style="fill-rule:evenodd;clip-rule:evenodd;stroke-linejoin:round;stroke-miterlimit:2;">
    <g id="Artboard1" transform="matrix(1,0,0,1,-80.2627,-589.391)">
        <rect x="80.263" y="589.391" width="1211.44" height="296.681" style="fill:none;"/>
        <g id="Layer-1" serif:id="Layer 1" transform="matrix(4.16667,0,0,4.16667,0.262663,0.391037)">
            <g transform="matrix(1,0,0,1,220.099,175.581)">
                <path d="M0,21.085L0,-1.554C0,-7.419 -3.249,-8.594 -12.498,-8.627C-22.551,-8.582 -25.979,-7.268 -25.979,-0.454L-25.979,2.548L-17.599,2.548L-17.599,-0.023C-17.599,-3.494 -17.33,-4.041 -12.955,-4.06C-9.346,-4.054 -9.097,-3.621 -9.097,-0.023L-9.097,6.87L-14.096,6.873L-17.935,6.873C-24.828,6.905 -26.93,10.195 -27.021,14.034L-18.339,14.034L-18.339,13.86C-18.339,12.1 -17.282,10.671 -15.519,10.671L-12.141,10.673L-9.139,10.673L-9.139,14.675L-9.144,18.247C-9.144,20.893 -10.573,21.438 -12.333,21.438L-15.519,21.438C-17.59,21.409 -18.339,20.011 -18.339,18.247L-18.339,14.034L-27.021,14.042C-27.022,14.133 -27.024,14.224 -27.024,14.318L-27.024,18.895C-27.024,22.931 -23.928,26.183 -19.16,26.183L3.424,26.18L3.424,21.085L0,21.085Z" style="fill:rgb(255,230,4);fill-rule:nonzero;"/>
            </g>
            <g transform="matrix(1,0,0,1,290.31,172.681)">
                <path d="M0,23.954L0,-5.126L-12.853,-5.126L-12.853,-0.408L-9.253,-0.408L-9.253,23.954L-12.853,23.954L-12.853,29.08L3.378,29.08L3.378,23.954L0,23.954Z" style="fill:rgb(255,230,4);fill-rule:nonzero;"/>
            </g>
            <g transform="matrix(-1,0,0,1,566.982,-280.396)">
                <rect x="276.661" y="434.742" width="9.34" height="6.192" style="fill:rgb(255,230,4);"/>
            </g>
            <g transform="matrix(1,0,0,1,88.09,186.006)">
                <path d="M0,-2.486L-8.976,-2.486L-8.976,-11.671C-8.976,-13.46 -8.438,-14.362 -6.379,-14.373L-2.508,-14.373C-0.896,-14.364 0,-13.654 0,-12.377L0,-2.486ZM-3.824,-18.983L-5.19,-18.983C-15.474,-18.937 -18.219,-16.606 -18.219,-10.676L-18.219,8.656C-18.219,15.154 -14.365,16.252 -5.003,16.497L-3.98,16.497C6.247,16.274 9.31,15.584 9.31,9.493L9.31,4.556L0.472,4.556L0.472,7.127C0.472,10.598 -0.104,10.749 -4.416,10.794C-9.411,10.828 -9.126,10.327 -9.077,7.127L-9.077,1.04L9.31,1.04L9.31,-12.155C9.31,-16.942 5.695,-18.946 -3.824,-18.983" style="fill:rgb(255,230,4);fill-rule:nonzero;"/>
            </g>
            <g transform="matrix(1,0,0,1,174.464,201.761)">
                <path d="M0,-34.806C-4.717,-34.806 -7.925,-28.864 -9.977,-26.282L-9.977,-34.206L-22.581,-34.206L-22.581,-29.488L-19.216,-29.488L-19.216,-5.116L-22.581,-5.116L-22.581,0L-6.808,0L-6.808,-5.116L-9.977,-5.116L-9.977,-18.17C-9.977,-19.395 -2.564,-28.776 -2.564,-27.681L-2.564,-14.714L6.167,-14.714L6.167,-29.314C6.167,-32.66 3.994,-34.806 0,-34.806" style="fill:rgb(255,230,4);fill-rule:nonzero;"/>
            </g>
            <g transform="matrix(1,0,0,1,31.1013,195.537)">
                <path d="M0,-34.99L5.217,-34.99L5.217,1.13L-1.427,1.13L-1.427,6.224L23.52,6.224L23.52,1.13L15.011,1.13L15.011,-14.95L19.935,-14.95L19.935,-10.398L25.578,-10.398L25.578,-24.778L19.935,-24.778L19.935,-20.495L15.011,-20.495L15.011,-34.99L242.515,-34.99L242.515,-41.214L0,-41.214L0,-34.99Z" style="fill:rgb(255,230,4);fill-rule:nonzero;"/>
            </g>
            <g transform="matrix(1,0,0,1,133.31,201.761)">
                <path d="M0,-34.806C-4.719,-34.806 -7.925,-28.864 -9.977,-26.282L-9.977,-34.206L-22.579,-34.206L-22.579,-29.488L-19.216,-29.488L-19.216,-5.116L-22.579,-5.116L-22.579,0L-6.805,0L-6.805,-5.116L-9.977,-5.116L-9.977,-18.17C-9.977,-19.395 -2.566,-28.776 -2.566,-27.681L-2.566,-14.714L6.167,-14.714L6.167,-29.314C6.167,-32.66 3.995,-34.806 0,-34.806" style="fill:rgb(255,230,4);fill-rule:nonzero;"/>
            </g>
            <g transform="matrix(1,0,0,1,258.439,201.761)">
                <path d="M0,-34.806C-4.717,-34.806 -7.928,-28.864 -9.977,-26.282L-9.977,-34.206L-22.577,-34.206L-22.577,-29.488L-19.218,-29.488L-19.218,-5.116L-22.577,-5.116L-22.577,0L-6.808,0L-6.808,-5.116L-9.977,-5.116L-9.977,-18.17C-9.977,-19.395 -2.566,-28.776 -2.566,-27.681L-2.566,-14.714L6.169,-14.714L6.169,-29.314C6.169,-32.66 3.989,-34.806 0,-34.806" style="fill:rgb(255,230,4);fill-rule:nonzero;"/>
            </g>
        </g>
    </g>
</svg>
